<svg width="112" height="88" viewBox="0 0 112 88" fill="none" xmlns="http://www.w3.org/2000/svg">
<path d="M79.1524 29.0327C73.281 35.1514 65.147 39.1711 55.9144 39.0475C55.2414 39.0475 54.5902 38.9456 53.9791 38.7564C53.0114 38.4581 52.142 37.9416 51.4217 37.265C50.2613 36.17 49.4974 34.6603 49.3773 32.9688C49.3664 32.8087 49.3591 32.6523 49.3591 32.4886C49.3591 31.6337 49.7266 30.4151 50.2868 29.0545C49.9339 29.6948 46.5035 36.7302 45.3758 46.5303C45.9942 47.1124 46.7872 47.709 47.8276 48.3056C49.0026 48.9785 50.4978 49.6515 52.4149 50.31C53.8627 50.8047 55.547 51.2922 57.5223 51.7578C60.8035 52.2089 60.3052 51.6159 61.2837 49.335C61.411 49.0367 61.5638 48.713 61.753 48.3565C62.084 47.7308 62.5096 47.1633 63.0153 46.6758C63.5209 46.192 64.103 45.7882 64.7469 45.4899C67.3915 44.2713 71.022 43.8348 74.4415 43.18C78.7704 42.3542 82.7683 41.1792 84.0051 37.6287C84.2307 36.9739 84.3253 36.2791 84.3325 35.588C84.3726 30.7279 82.1826 31.099 79.1524 29.0327Z" fill="url(#paint0_linear_118_95382)"/>
<path opacity="0.29" d="M53.979 38.7564C53.0113 38.4581 52.1419 37.9415 51.4216 37.2649C52.2656 38.509 55.3286 44.1657 61.28 49.335C61.4073 49.0367 61.5601 48.7129 61.7492 48.3564C62.0803 47.7307 62.5059 47.1632 63.0115 46.6758C63.5172 46.192 64.0992 45.7882 64.7431 45.4899C67.3877 44.2712 71.0182 43.8347 74.4377 43.1799C63.3899 43.5728 54.6956 39.1383 53.979 38.7564Z" fill="url(#paint1_linear_118_95382)"/>
<path opacity="0.29" d="M49.3554 32.4887C49.3554 31.6339 49.7228 30.4152 50.283 29.0547C49.9302 29.6949 46.4998 36.7304 45.3721 46.5305C45.9905 47.1125 46.7835 47.7091 47.8239 48.3057C48.9989 48.9787 50.494 49.6517 52.4111 50.3101C49.3954 42.6344 49.4173 35.0643 49.3736 32.9689C49.3627 32.8089 49.3554 32.6488 49.3554 32.4887Z" fill="url(#paint2_linear_118_95382)"/>
<path opacity="0.29" d="M61.2799 49.3349C55.3286 44.1657 52.2656 38.5089 51.4216 37.2648C50.2612 36.1699 49.4972 34.6602 49.3772 32.9686C49.4209 35.0676 49.3954 42.6342 52.4147 50.3098C53.8625 50.8046 55.5468 51.292 57.5221 51.7577C60.8034 52.2124 60.3014 51.6194 61.2799 49.3349Z" fill="url(#paint3_linear_118_95382)"/>
<path d="M79.0433 28.9599C77.9847 28.2214 76.8679 27.2247 75.8166 25.6932C74.9217 24.3909 73.9577 23.1395 72.9136 21.9572C72.4917 21.4806 72.0588 21.0114 71.604 20.5603C69.7015 18.6541 67.0714 16.1586 64.023 13.5649C58.3735 8.75577 51.2944 3.61562 44.7974 1.28381C43.0513 0.658119 41.3488 0.232501 39.7227 0.0760775C38.7769 -0.0148664 37.8638 -0.0330548 36.9944 0.0651647C35.7503 0.207037 34.9282 1.34566 34.9936 2.59704C35.0191 3.13543 34.7208 3.5756 34.2334 4.00486C33.9132 4.28497 33.5131 4.5578 33.0656 4.84518C32.5345 5.18713 32.0071 5.66004 31.5014 6.22389C40.9741 6.67497 49.9303 10.069 55.9071 18.7851C55.9071 18.7851 59.0392 23.6051 60.9745 27.774C61.8403 29.6365 62.466 31.3753 62.466 32.4921C62.466 33.9509 61.9895 35.3005 61.1819 36.3882C61.0946 36.5046 61.0036 36.6174 60.909 36.7301C60.2688 37.4868 59.4612 38.0943 58.5409 38.4981C58.3772 38.5708 58.2098 38.6363 58.0388 38.6945C57.3695 38.9237 56.6529 39.051 55.9071 39.051C65.1397 39.1747 73.2738 35.155 79.1451 29.0363C79.116 29.0072 79.0796 28.9853 79.0433 28.9599Z" fill="url(#paint4_linear_118_95382)"/>
<path opacity="0.75" d="M58.5479 38.4948C58.3842 38.5675 58.2168 38.633 58.0459 38.6912C57.3765 38.9204 56.6599 39.0477 55.9141 39.0477C65.1468 39.1714 73.2808 35.1517 79.1521 29.033C79.1157 29.0075 79.0794 28.9857 79.043 28.9602C77.9844 28.2217 76.8676 27.225 75.8163 25.6935C74.9214 24.3912 73.9574 23.1398 72.9134 21.9575C70.3633 29.3785 65.5833 35.6682 58.5479 38.4948Z" fill="url(#paint5_linear_118_95382)"/>
<path opacity="0.59" d="M61.1891 36.3843C61.1017 36.5007 61.0108 36.6135 60.9162 36.7263C60.9126 36.7299 60.9089 36.7336 60.9089 36.7372C60.9126 36.7336 60.9162 36.7299 60.9162 36.7263C60.276 37.4829 59.4684 38.0904 58.548 38.4942C65.5835 35.6677 70.3635 29.378 72.9135 21.9533C72.4916 21.4768 72.0587 21.0075 71.6039 20.5564C69.7014 18.6503 67.0713 16.1548 64.0229 13.561C65.8417 22.379 65.2452 31.1751 61.1891 36.3843Z" fill="url(#paint6_linear_118_95382)"/>
<path opacity="0.4" d="M60.9818 27.7703C61.8476 29.6328 62.4733 31.3717 62.4733 32.4885C62.4733 33.9472 61.9967 35.2968 61.1891 36.3845C65.2452 31.1752 65.8418 22.3791 64.0266 13.5612C58.3771 8.7521 51.2981 3.61195 44.801 1.28015C56.511 12.4081 60.5016 26.0278 60.9818 27.7703Z" fill="url(#paint7_linear_118_95382)"/>
<path d="M31.5087 6.21643C30.0354 7.85706 28.744 10.2944 28.1037 12.6844C27.4598 15.0926 27.4671 17.4498 28.613 18.9049C28.8386 19.1887 29.0677 19.4906 29.3005 19.8035C29.8135 20.4946 30.3409 21.244 30.8793 22.0443C30.8793 22.048 30.8793 22.048 30.8793 22.048C31.9707 23.6704 33.102 25.482 34.2115 27.3336C34.9318 28.5341 35.6412 29.7527 36.3287 30.9495C37.34 32.7211 38.3004 34.4382 39.1516 35.9806C39.8137 37.1737 43.466 44.7294 45.3758 46.5264C46.5071 36.7263 49.9339 29.6909 50.2868 29.0506C52.0947 24.6562 55.918 18.774 55.918 18.774C49.9339 10.0652 40.9814 6.66751 31.5087 6.21643Z" fill="url(#paint8_linear_118_95382)"/>
<path opacity="0.8" d="M55.9144 18.7812C53.9173 20.2764 45.2885 25.5329 39.1479 35.9878C39.81 37.181 43.4623 44.7367 45.3722 46.5337C46.5035 36.7336 49.9303 29.6982 50.2831 29.0579C52.0911 24.6635 55.9144 18.7812 55.9144 18.7812Z" fill="url(#paint9_linear_118_95382)"/>
<path d="M55.9108 18.774C55.6635 18.5666 46.8892 11.3275 28.1038 12.688C28.7477 10.2944 30.0355 7.8607 31.5088 6.21643C40.9778 6.66751 49.934 10.0615 55.9108 18.774Z" fill="url(#paint10_linear_118_95382)"/>
<path opacity="0.5" d="M55.9109 18.7745C55.8454 18.7163 55.1433 18.1415 53.7864 17.3594C47.926 10.1239 39.7374 7.17731 31.0977 6.71168C31.2323 6.54071 31.3705 6.377 31.5124 6.22058C40.9779 6.66803 49.934 10.0621 55.9109 18.7745Z" fill="url(#paint11_linear_118_95382)"/>
<path opacity="0.54" d="M55.9142 18.7812C54.2954 19.3924 43.9969 20.4764 34.2077 27.3409C34.928 28.5414 35.6373 29.76 36.3249 30.9568C37.3362 32.7284 38.2965 34.4454 39.1478 35.9878C45.2883 25.5329 53.9171 20.2764 55.9142 18.7812Z" fill="url(#paint12_linear_118_95382)"/>
<path opacity="0.34" d="M29.2968 19.8075C29.8097 20.4987 30.3372 21.248 30.8756 22.0484C30.8756 22.052 30.8756 22.052 30.8756 22.052C31.9669 23.6744 33.0983 25.486 34.2078 27.3377C43.997 20.4732 54.2955 19.3891 55.9143 18.778C55.9143 18.7816 44.499 16.3953 29.2968 19.8075Z" fill="url(#paint13_linear_118_95382)"/>
<path opacity="0.16" d="M55.9144 18.7811C55.9144 18.7811 47.1619 11.3091 28.1037 12.6878C27.4598 15.096 27.4671 17.4533 28.613 18.9084C28.8386 19.1921 29.0677 19.4941 29.3005 19.8069C44.4991 16.3947 55.9144 18.7811 55.9144 18.7811Z" fill="url(#paint14_linear_118_95382)"/>
<path d="M49.3554 32.4885C49.3554 32.5649 49.3591 32.6413 49.3627 32.7177C48.1731 35.7843 46.5653 40.8299 45.8559 46.9595C45.6849 46.8176 45.5212 46.6758 45.3721 46.5339C46.5034 36.7338 49.9302 29.6984 50.283 29.0581C49.7228 30.415 49.3554 31.6336 49.3554 32.4885Z" fill="url(#paint15_linear_118_95382)"/>
<path opacity="0.75" d="M79.1521 29.0331C73.2808 35.1518 65.1468 39.1751 55.9141 39.0478C56.6599 39.0478 57.3729 38.9205 58.0422 38.6913C58.2132 38.6331 58.3842 38.5676 58.5479 38.4949C58.7843 38.4003 59.0171 38.2984 59.2536 38.1966C66.8965 37.4617 73.6336 33.8822 78.7411 28.7384C78.8429 28.8148 78.9448 28.8875 79.043 28.9567C79.0794 28.9858 79.1157 29.0076 79.1521 29.0331Z" fill="url(#paint16_linear_118_95382)"/>
<path d="M57.5692 27.0759C57.4746 27.0395 57.3801 27.0068 57.2891 26.974C57.3328 27.0286 57.3801 27.0795 57.4201 27.1341C57.5329 27.276 57.642 27.4215 57.7402 27.5743C57.9767 27.9271 58.184 28.3054 58.355 28.702C58.5223 29.0912 58.6606 29.4986 58.7624 29.9279L58.7733 29.9715L58.1513 30.1243L57.8421 30.2007L57.8311 30.1571C57.5729 29.0912 57.0854 28.1672 56.3833 27.4069V33.1764L56.3651 33.191C56.2233 33.2964 56.0777 33.4092 55.9286 33.5293L55.9068 33.5475L55.8849 33.5293C55.7358 33.4129 55.5903 33.2964 55.4484 33.191L55.4302 33.1764V27.4069C54.7281 28.1672 54.2407 29.0912 53.9824 30.1571L53.9715 30.2007L53.6477 30.1207L53.0402 29.9715L53.0511 29.9279C53.1603 29.4841 53.3021 29.0621 53.4767 28.6619C53.6514 28.2618 53.8624 27.8871 54.1024 27.5342C54.1934 27.3996 54.2916 27.2687 54.3935 27.1414C54.4371 27.0868 54.4844 27.0286 54.5281 26.974C54.4335 27.0068 54.3389 27.0395 54.2407 27.0759C53.4877 27.3669 52.6546 27.8362 51.7634 28.4801L51.6906 28.5346C51.9162 28.0362 52.1817 27.4797 52.4982 26.8613C52.8947 26.6357 53.2839 26.4429 53.6586 26.2829C53.7496 26.2465 53.8369 26.2101 53.9278 26.1737C54.1097 26.1046 54.288 26.0428 54.4626 25.9918C54.0661 25.799 53.6441 25.6353 53.2039 25.508C53.3094 25.3152 53.4185 25.1151 53.5313 24.9114C53.5786 24.8241 53.6295 24.7368 53.6768 24.6495C54.3025 24.8459 54.8918 25.1079 55.4302 25.4243C55.4302 25.0096 55.5248 24.4858 55.6121 24.0202L55.8922 22.7215C55.8959 22.7069 55.914 22.7069 55.9177 22.7215L56.1978 24.0202C56.2887 24.4858 56.3833 25.0133 56.3833 25.4243C56.9217 25.1079 57.511 24.8459 58.1331 24.6495C58.1804 24.7368 58.2277 24.8241 58.2786 24.9114C58.3914 25.1151 58.5005 25.3152 58.606 25.5116C58.1695 25.639 57.7475 25.799 57.351 25.9955C57.5219 26.0464 57.7002 26.1046 57.8784 26.1737C57.9621 26.2065 58.0494 26.2392 58.1367 26.2756C58.2058 26.3047 58.275 26.3338 58.3404 26.3629C58.6569 26.5048 58.9807 26.6685 59.3081 26.854C59.6209 27.4724 59.8865 28.029 60.112 28.5273L60.0429 28.4764C59.1589 27.8362 58.3259 27.3669 57.5692 27.0759Z" fill="white"/>
<path d="M61.3346 32.525C61.3274 32.8233 61.2983 33.118 61.2437 33.409C59.734 33.3544 58.4936 33.66 57.5441 34.3184C57.4895 34.3548 57.435 34.3948 57.3768 34.4385C57.184 34.5803 56.9766 34.7477 56.7583 34.9259C56.7147 34.9623 56.6674 35.0023 56.6201 35.0387C57.4968 35.7117 58.4717 36.3519 59.4539 36.5083C59.1556 36.7666 58.8319 36.9885 58.4936 37.1704C57.5587 36.8357 56.6892 36.2246 55.9144 35.6098C55.1359 36.2246 54.2665 36.8357 53.3389 37.1704C53.0005 36.9849 52.6768 36.763 52.3821 36.5083C53.3607 36.3519 54.3356 35.7117 55.205 35.0423C55.1577 35.0059 55.1141 34.9659 55.0668 34.9296C54.8485 34.7513 54.6375 34.584 54.4484 34.4421C54.3902 34.3984 54.3356 34.3584 54.281 34.322C53.3352 33.6673 52.0984 33.3617 50.5923 33.4126C50.5378 33.1252 50.5087 32.8306 50.5014 32.5286C52.2293 32.4559 53.6699 32.8124 54.7903 33.5909C54.9249 33.6854 55.0668 33.7909 55.2159 33.9073C55.4051 34.0565 55.6052 34.2166 55.8089 34.3839L55.8125 34.3875C55.8489 34.4166 55.8816 34.4457 55.918 34.4748C55.9508 34.4457 55.9835 34.4203 56.0199 34.3912L56.0235 34.3875C56.2309 34.2202 56.4273 34.0601 56.6165 33.911C56.7656 33.7946 56.9075 33.6891 57.0421 33.5945C58.1552 32.8087 59.6031 32.4522 61.3346 32.525Z" fill="white"/>
<path d="M3.41053 71.939C3.81796 71.939 4.18173 71.8771 4.49822 71.7498C4.8147 71.6225 5.0839 71.4442 5.3058 71.2114C5.52771 70.9786 5.69868 70.6985 5.81145 70.3711C5.92786 70.0437 5.98606 69.6799 5.98606 69.2761C5.98606 68.7632 5.87693 68.2794 5.65866 67.8174C5.4404 67.3554 5.07298 66.8679 4.55642 66.355L4.22175 66.0312H2.70117L2.32648 66.435C1.32973 67.4682 0.83136 68.4795 0.83136 69.4762C0.83136 70.211 1.0569 70.8076 1.50434 71.2587C1.95906 71.7134 2.59203 71.939 3.41053 71.939ZM2.14459 68.5886C2.27919 68.374 2.48654 68.1084 2.77028 67.7956L3.23592 67.2717H3.3305L3.87616 67.7956C4.25085 68.1375 4.50913 68.4249 4.65828 68.665C4.80379 68.9014 4.88018 69.1306 4.88018 69.3453C4.88018 69.6581 4.7565 69.9164 4.51277 70.1201C4.26904 70.3202 3.94528 70.422 3.54513 70.422H3.27593C2.87578 70.422 2.55202 70.3093 2.30829 70.0873C2.06456 69.8618 1.94088 69.5926 1.94088 69.2798C1.94451 69.0324 2.00999 68.8032 2.14459 68.5886Z" fill="white"/>
<path d="M11.4427 74.5913C11.6464 74.5913 11.8101 74.5294 11.9374 74.4021C12.0611 74.2748 12.1229 74.082 12.1229 73.8237C12.1229 73.5545 12.0611 73.3581 11.9374 73.238C11.8137 73.118 11.6464 73.0562 11.4427 73.0562H11.2426C11.0389 73.0562 10.8752 73.118 10.7551 73.238C10.6351 73.3581 10.5732 73.5545 10.5732 73.8237C10.5732 74.082 10.6314 74.2748 10.7551 74.4021C10.8752 74.5258 11.0389 74.5913 11.2426 74.5913H11.4427Z" fill="white"/>
<path d="M14.0034 73.8237C14.0034 73.5545 13.9415 73.3581 13.8178 73.238C13.6941 73.118 13.5305 73.0562 13.3231 73.0562H13.123C12.9193 73.0562 12.7556 73.118 12.6356 73.238C12.5155 73.3581 12.4537 73.5545 12.4537 73.8237C12.4537 74.082 12.5155 74.2748 12.6356 74.4021C12.7556 74.5258 12.9193 74.5913 13.123 74.5913H13.3231C13.5268 74.5913 13.6905 74.5294 13.8178 74.4021C13.9415 74.2748 14.0034 74.082 14.0034 73.8237Z" fill="white"/>
<path d="M27.6959 69.2218C27.6959 69.5892 27.6195 69.8584 27.4631 70.0294C27.3067 70.2004 27.0339 70.2841 26.641 70.2841H26.1754H25.7097C25.0076 70.2841 24.6548 69.9312 24.6548 69.2218V61.8445H23.4143V69.2218C23.4143 69.9312 23.0432 70.2841 22.3084 70.2841H21.8937H21.5736C21.4208 70.2841 21.2935 70.2695 21.188 70.2368C21.0825 70.204 20.9843 70.1531 20.9006 70.084C20.8169 70.0112 20.7369 69.9094 20.6678 69.782C20.595 69.6511 20.5259 69.4874 20.4532 69.2909L19.4528 66.5845H18.1068L17.372 67.0428C16.739 67.4466 16.2661 67.8613 15.9496 68.2796C15.6331 68.7016 15.4767 69.1636 15.4767 69.6656C15.4767 69.8366 15.4913 69.993 15.5167 70.1349C15.393 70.1967 15.2475 70.2368 15.0838 70.255C14.9201 70.2731 14.6982 70.2804 14.4218 70.2804H13.9161C13.2213 70.2804 12.8757 69.9276 12.8757 69.2182V67.1738H11.7153V69.2182C11.7153 69.9276 11.3478 70.2804 10.6094 70.2804H10.1692H9.72904C9.32889 70.2804 9.04151 70.2149 8.8669 70.0803C8.69228 69.9457 8.60498 69.6911 8.60498 69.3128V61.8408H7.3645V69.4328C7.3645 70.2841 7.5573 70.8916 7.93927 71.2553C8.32123 71.6191 8.94693 71.801 9.81999 71.801H9.83454L9.84909 71.7864V71.801C10.4457 71.801 10.8859 71.6846 11.1769 71.4518C11.4679 71.219 11.6643 70.8224 11.7698 70.2659H11.8499C11.9663 70.797 12.2027 71.1826 12.5629 71.4299C12.923 71.6773 13.4323 71.801 14.0907 71.801L14.1053 71.7864V71.801C14.5054 71.801 14.8219 71.7064 15.0511 71.5173C15.2839 71.3281 15.4585 71.0334 15.5858 70.6296H15.6659C15.8332 71.008 16.1097 71.2953 16.488 71.4991C16.8663 71.7028 17.3538 71.801 17.9504 71.801H19.591V70.8188L19.671 70.8042C19.8857 71.1717 20.133 71.4299 20.4168 71.5791C20.7005 71.7282 21.0898 71.801 21.5772 71.801C22.1629 71.801 22.5994 71.6846 22.8832 71.4518C23.1669 71.219 23.3634 70.8224 23.4689 70.2659H23.5489C23.6653 70.797 23.9127 71.1826 24.291 71.4299C24.6693 71.6773 25.1932 71.801 25.8589 71.801H26.6446C27.474 71.801 28.0633 71.5937 28.4198 71.1753C28.7763 70.757 28.9546 70.1058 28.9546 69.2182V61.8408H27.6996V69.2218H27.6959ZM17.743 70.2841C17.3429 70.2841 17.0373 70.2222 16.8227 70.1022C16.608 69.9821 16.5026 69.7857 16.5026 69.5165C16.5026 69.2837 16.6153 69.0654 16.8445 68.8653C17.07 68.6653 17.3611 68.4724 17.7176 68.2942L18.5179 67.8904L19.2236 69.8002C19.26 69.8912 19.2891 69.9748 19.3182 70.0549C19.3436 70.1349 19.3764 70.2113 19.4128 70.2841H17.743Z" fill="white"/>
<path d="M35.2734 70.9826C35.7354 70.9826 36.1101 70.8734 36.3938 70.6515C36.6776 70.4333 36.8885 70.0695 37.0195 69.5675H37.085V69.7275C37.085 70.4369 37.2596 70.9607 37.6125 71.2954C37.9653 71.6337 38.5437 71.8011 39.3549 71.8011H39.9552C40.8974 71.8011 41.5958 71.5973 42.0505 71.1899C42.5052 70.7825 42.7308 70.1568 42.7308 69.3128C42.7308 68.8981 42.6762 68.3343 42.5707 67.6176L42.3961 66.4463L41.2357 66.6354L41.4503 67.8068C41.5121 68.1924 41.5558 68.5016 41.5776 68.7344C41.5994 68.9672 41.6104 69.16 41.6104 69.3128C41.6104 69.6802 41.4867 69.9349 41.2357 70.0731C40.9883 70.2114 40.559 70.2805 39.9552 70.2805H39.6751H39.2349C38.8893 70.2805 38.6347 70.2186 38.4746 70.0986C38.3145 69.9785 38.2345 69.7566 38.2345 69.4329V64.802H37.0195V65.515L35.6044 66.268C35.2225 66.4754 34.8914 66.6791 34.6113 66.8792C34.3312 67.0792 34.0984 67.2939 33.9092 67.5194C33.7237 67.7449 33.5855 67.985 33.4945 68.2397C33.4072 68.4943 33.3599 68.7744 33.3599 69.08C33.3599 69.6802 33.5236 70.1495 33.8547 70.4805C34.1893 70.8189 34.6622 70.9826 35.2734 70.9826ZM34.7823 68.0141C34.9969 67.8213 35.3425 67.5994 35.8227 67.3484L37.0231 66.73V68.5489C37.0231 68.8908 36.914 69.1273 36.6957 69.2619C36.4775 69.3965 36.1028 69.4656 35.568 69.4656C35.157 69.4656 34.8732 69.4074 34.7059 69.291C34.5422 69.1746 34.4585 68.9854 34.4585 68.7271C34.4622 68.4434 34.5677 68.2069 34.7823 68.0141Z" fill="white"/>
<path d="M37.5546 63.7143H37.7547C37.9584 63.7143 38.1221 63.6525 38.2494 63.5252C38.3731 63.4015 38.4349 63.2087 38.4349 62.9468C38.4349 62.6776 38.3731 62.4811 38.2494 62.3611C38.1257 62.241 37.962 62.1792 37.7547 62.1792H37.5546C37.3509 62.1792 37.1872 62.241 37.0671 62.3611C36.9471 62.4811 36.8853 62.6776 36.8853 62.9468C36.8853 63.2087 36.9471 63.4015 37.0671 63.5252C37.1908 63.6525 37.3509 63.7143 37.5546 63.7143Z" fill="white"/>
<path d="M35.6738 63.7143H35.8739C36.0776 63.7143 36.2413 63.6525 36.3686 63.5252C36.4923 63.4015 36.5541 63.2087 36.5541 62.9468C36.5541 62.6776 36.4923 62.4811 36.3686 62.3611C36.2449 62.241 36.0776 62.1792 35.8739 62.1792H35.6738C35.4701 62.1792 35.3064 62.241 35.1863 62.3611C35.0663 62.4811 35.0045 62.6776 35.0045 62.9468C35.0045 63.2087 35.0663 63.4015 35.1863 63.5252C35.3064 63.6525 35.4701 63.7143 35.6738 63.7143Z" fill="white"/>
<path d="M40.7738 73.0562H40.5738C40.3701 73.0562 40.2064 73.118 40.0863 73.238C39.9663 73.3581 39.9044 73.5545 39.9044 73.8237C39.9044 74.082 39.9663 74.2748 40.0863 74.4021C40.2064 74.5258 40.3701 74.5913 40.5738 74.5913H40.7738C40.9776 74.5913 41.1413 74.5294 41.2686 74.4021C41.3923 74.2748 41.4541 74.082 41.4541 73.8237C41.4541 73.5545 41.3923 73.3581 41.2686 73.238C41.1413 73.118 40.9776 73.0562 40.7738 73.0562Z" fill="white"/>
<path d="M42.4543 74.5913H42.6544C42.8581 74.5913 43.0218 74.5294 43.1492 74.4021C43.2728 74.2748 43.3347 74.082 43.3347 73.8237C43.3347 73.5545 43.2728 73.3581 43.1492 73.238C43.0255 73.118 42.8618 73.0562 42.6544 73.0562H42.4543C42.2506 73.0562 42.0869 73.118 41.9669 73.238C41.8468 73.3581 41.7886 73.5545 41.7886 73.8237C41.7886 74.082 41.8505 74.2748 41.9669 74.4021C42.0869 74.5258 42.247 74.5913 42.4543 74.5913Z" fill="white"/>
<path d="M45.1102 71.8043H46.8454C47.6093 71.8043 48.2023 71.597 48.6206 71.1786C49.039 70.7603 49.2463 70.1819 49.2463 69.4361C49.2463 69.1415 49.2172 68.865 49.159 68.6067C49.1008 68.3521 49.0099 68.0938 48.8862 67.8392C48.7625 67.5845 48.5988 67.319 48.3987 67.0461C48.1987 66.7733 47.9513 66.4786 47.6566 66.1658L46.4307 64.8198L45.3503 65.9221L46.7108 67.3371C47.2092 67.821 47.5584 68.2175 47.7658 68.5231C47.9695 68.8286 48.0713 69.116 48.0713 69.3852C48.0713 69.6471 47.9949 69.8618 47.8385 70.0327C47.6821 70.2037 47.3947 70.2874 46.9764 70.2874H44.841V69.3306H43.6551V70.3128C43.6551 70.8258 43.7824 71.2004 44.0407 71.4442C44.299 71.6843 44.6555 71.8043 45.1102 71.8043Z" fill="white"/>
<path d="M73.3973 71.7901V71.8047H74.183C75.0088 71.8047 75.6017 71.5973 75.9582 71.179C76.3147 70.7606 76.493 70.1095 76.493 69.2219V61.8445H75.238V69.2219C75.238 69.5893 75.1616 69.8585 75.0051 70.0294C74.8487 70.2004 74.5759 70.2841 74.183 70.2841H73.7174H73.2117C72.5169 70.2841 72.1713 69.9312 72.1713 69.2219V67.7158H71.0109V69.2291C71.0109 69.6729 70.9454 69.9858 70.8181 70.1677C70.6871 70.3532 70.4834 70.4441 70.196 70.4441H69.9559C69.654 70.4441 69.443 70.3496 69.323 70.1677C69.2029 69.9821 69.1411 69.6693 69.1411 69.2255V68.2506H67.9806V69.2146C67.9806 69.6693 67.886 69.9894 67.7005 70.1713C67.515 70.3532 67.2203 70.4441 66.8202 70.4441C66.5619 70.4441 66.3109 70.4114 66.0672 70.3423C65.8234 70.2732 65.5652 70.164 65.2996 70.0112L65.205 69.9567L65.8052 68.7599L64.8049 68.2469L64.2592 69.3637C64.1719 69.542 64.081 69.6911 63.9936 69.8075C63.9027 69.9239 63.8081 70.0185 63.699 70.0913C63.5935 70.164 63.4662 70.2113 63.3243 70.2404C63.1824 70.2659 63.0187 70.2804 62.8296 70.2804H62.564H60.5778L60.5632 70.255C60.8288 70.0404 61.0543 69.8476 61.2362 69.6839C61.4181 69.5165 61.5673 69.3528 61.6837 69.1928C61.8001 69.0327 61.8837 68.8617 61.9383 68.6798C61.9929 68.5016 62.0183 68.2906 62.0183 68.0469C62.0183 67.3739 61.7892 66.861 61.3308 66.5117C60.8725 66.1625 60.1849 65.9879 59.2682 65.9879C58.8135 65.9879 58.3515 66.0425 57.8822 66.1552C57.4093 66.268 56.9691 66.4244 56.5617 66.6318V68.1851L58.1914 70.2295L58.1769 70.2841H56.016H55.3904C55.3722 69.0727 55.143 68.1305 54.7028 67.4575C54.2626 66.7846 53.6515 66.4462 52.8694 66.4462C52.4947 66.4462 52.1527 66.5263 51.8435 66.69C51.5307 66.85 51.2615 67.0683 51.036 67.3411C50.8104 67.614 50.6322 67.9414 50.5012 68.3161C50.3739 68.6944 50.3084 69.0982 50.3084 69.5274C50.3084 70.255 50.5048 70.8152 50.9014 71.2117C51.2979 71.6082 51.8544 71.8047 52.5747 71.8047H54.1753C54.008 72.343 53.6588 72.7614 53.1349 73.0633C52.6111 73.3653 51.8799 73.5144 50.945 73.5144H50.1702V75.035H50.9959C52.1891 75.035 53.1386 74.7549 53.8443 74.1947C54.55 73.6345 55.0157 72.8378 55.2376 71.8047H55.6923H57.0674C57.4675 71.8047 57.8604 71.7537 58.2496 71.6519C58.6352 71.55 58.999 71.379 59.3373 71.1462C59.6756 71.379 60.0503 71.5464 60.4577 71.6519C60.8652 71.7537 61.2762 71.8047 61.6837 71.8047H62.2439C62.7677 71.8047 63.2006 71.761 63.5389 71.6701C63.8772 71.5791 64.1792 71.3972 64.4447 71.1171L64.8049 71.3318C65.1796 71.5573 65.4997 71.7174 65.7725 71.8156C66.0453 71.9138 66.3073 71.9647 66.5655 71.9647C67.4022 71.9647 67.897 71.4409 68.0461 70.3896H68.1261C68.2935 71.4409 68.8319 71.9647 69.7413 71.9647C70.1669 71.9647 70.498 71.8447 70.7344 71.6009C70.9709 71.3572 71.1164 70.9534 71.1673 70.3896H71.2328C71.3565 70.8734 71.5893 71.2299 71.9349 71.4591C72.2768 71.6883 72.7606 71.801 73.3827 71.801L73.3973 71.7901ZM54.2772 70.2841H52.622C52.2219 70.2841 51.9199 70.2113 51.7162 70.0622C51.5125 69.913 51.4106 69.6729 51.4106 69.3383C51.4106 68.9308 51.5307 68.6034 51.7708 68.3488C52.0109 68.0941 52.3346 67.9705 52.7457 67.9705C53.2004 67.9705 53.5678 68.1596 53.8516 68.5307C54.1353 68.9054 54.2772 69.4037 54.2772 70.0258V70.2841ZM59.8648 69.6366L59.4392 70.0003L57.6094 67.7922V67.7376C58.1623 67.5849 58.708 67.5085 59.25 67.5085C60.3632 67.5085 60.9197 67.7777 60.9197 68.3197C60.9197 68.5561 60.8288 68.7562 60.6542 68.9272C60.4759 69.1018 60.214 69.3383 59.8648 69.6366Z" fill="white"/>
<path d="M79.5741 61.8445H78.3336V71.8047H79.5741V61.8445Z" fill="white"/>
<path d="M88.1811 63.7143H88.3812C88.5849 63.7143 88.7486 63.6525 88.8759 63.5252C88.9996 63.4015 89.0614 63.2087 89.0614 62.9468C89.0614 62.6776 88.9996 62.4811 88.8759 62.3611C88.7522 62.241 88.5885 62.1792 88.3812 62.1792H88.1811C87.9774 62.1792 87.8137 62.241 87.6936 62.3611C87.5736 62.4811 87.5154 62.6776 87.5154 62.9468C87.5154 63.2087 87.5772 63.4015 87.6936 63.5252C87.8137 63.6525 87.9774 63.7143 88.1811 63.7143Z" fill="white"/>
<path d="M86.3005 63.7143H86.5006C86.7043 63.7143 86.868 63.6525 86.9953 63.5252C87.119 63.4015 87.1808 63.2087 87.1808 62.9468C87.1808 62.6776 87.119 62.4811 86.9953 62.3611C86.8716 62.241 86.7043 62.1792 86.5006 62.1792H86.3005C86.0968 62.1792 85.9331 62.241 85.8131 62.3611C85.693 62.4811 85.6312 62.6776 85.6312 62.9468C85.6312 63.2087 85.693 63.4015 85.8131 63.5252C85.9331 63.6525 86.0968 63.7143 86.3005 63.7143Z" fill="white"/>
<path d="M93.8777 65.089H92.9573C92.3353 65.089 92.0224 64.9108 92.0224 64.5507C92.0224 64.4342 92.0697 64.336 92.168 64.2596C92.2662 64.1832 92.3935 64.1469 92.5536 64.1469C92.7936 64.1469 93.0155 64.2487 93.2193 64.4561L93.7795 63.7285C93.6376 63.5503 93.4557 63.4084 93.2338 63.3029C93.0119 63.201 92.7864 63.1465 92.5536 63.1465C92.1716 63.1465 91.8551 63.2665 91.6077 63.503C91.3604 63.7394 91.233 64.0377 91.233 64.3979C91.233 64.6743 91.3167 64.9108 91.4877 65.0963L91.4731 65.1654H90.9529V66.0931H93.8741V65.089H93.8777Z" fill="white"/>
<path d="M95.6385 74.5913H95.8386C96.0423 74.5913 96.206 74.5294 96.3333 74.4021C96.457 74.2748 96.5188 74.082 96.5188 73.8237C96.5188 73.5545 96.457 73.3581 96.3333 73.238C96.2096 73.118 96.0423 73.0562 95.8386 73.0562H95.6385C95.4348 73.0562 95.2711 73.118 95.151 73.238C95.031 73.3581 94.9728 73.5545 94.9728 73.8237C94.9728 74.082 95.031 74.2748 95.151 74.4021C95.2747 74.5258 95.4348 74.5913 95.6385 74.5913Z" fill="white"/>
<path d="M97.723 73.0562H97.5229C97.3192 73.0562 97.1555 73.118 97.0355 73.238C96.9154 73.3581 96.8536 73.5545 96.8536 73.8237C96.8536 74.082 96.9154 74.2748 97.0355 74.4021C97.1555 74.5258 97.3192 74.5913 97.5229 74.5913H97.723C97.9267 74.5913 98.0904 74.5294 98.2177 74.4021C98.3414 74.2748 98.4033 74.082 98.4033 73.8237C98.4033 73.5545 98.3414 73.3581 98.2177 73.238C98.0904 73.118 97.9267 73.0562 97.723 73.0562Z" fill="white"/>
<path d="M103.98 71.8047H104.995H105.781C106.61 71.8047 107.199 71.5973 107.556 71.179C107.912 70.7606 108.091 70.1095 108.091 69.2219V61.8445H106.836V69.2219C106.836 69.5893 106.759 69.8585 106.603 70.0294C106.446 70.2004 106.174 70.2841 105.781 70.2841H105.315H104.249C103.936 70.2841 103.696 70.3568 103.529 70.506C103.362 70.6551 103.198 70.9243 103.049 71.3208L101.954 74.0382C101.786 73.7691 101.641 73.5326 101.521 73.3253C101.401 73.1179 101.306 72.9287 101.233 72.7541C101.161 72.5795 101.11 72.4194 101.073 72.2776C101.037 72.1357 101.019 71.9866 101.019 71.8338C101.019 71.6919 101.03 71.5464 101.052 71.4045C101.073 71.2626 101.113 71.1098 101.164 70.9534C101.219 70.797 101.284 70.6224 101.364 70.4369C101.444 70.2477 101.543 70.0367 101.659 69.8039L102.165 68.7671L101.179 68.2542L100.633 69.371C100.466 69.7129 100.277 69.9494 100.066 70.084C99.8584 70.2186 99.571 70.2841 99.2036 70.2841H98.818H98.3123C97.6175 70.2841 97.2719 69.9312 97.2719 69.2219V67.1774H96.1115V69.2219C96.1115 69.9312 95.7441 70.2841 95.0056 70.2841H94.5655H94.0598C93.365 70.2841 93.0194 69.9312 93.0194 69.2219V67.1774H91.859V69.2219C91.859 69.9312 91.4915 70.2841 90.7531 70.2841H90.3129H89.8728C89.5272 70.2841 89.2725 70.2222 89.1124 70.1022C88.9524 69.9821 88.8724 69.7602 88.8724 69.4365V64.8056H87.6573V65.5186L86.2423 66.2716C85.8603 66.479 85.5293 66.6827 85.2492 66.8828C84.969 67.0829 84.7362 67.2975 84.5507 67.523C84.3652 67.7486 84.2269 67.9887 84.136 68.2433C84.0487 68.4979 84.0014 68.7781 84.0014 69.0836C84.0014 69.6839 84.1651 70.1531 84.4961 70.4842C84.8235 70.8152 85.2964 70.9825 85.9112 70.9825C86.3732 70.9825 86.7479 70.8734 87.0317 70.6515C87.3154 70.4332 87.5264 70.0695 87.6573 69.5674H87.7228V69.7275C87.7228 70.4369 87.8974 70.9607 88.2503 71.2954C88.6032 71.6337 89.1816 71.801 89.9928 71.801C90.5894 71.801 91.0296 71.6846 91.3206 71.4518C91.608 71.219 91.808 70.8225 91.9135 70.2659H91.9936C92.11 70.797 92.3464 71.1826 92.7066 71.43C93.0667 71.6773 93.576 71.801 94.2344 71.801L94.249 71.7865V71.801C94.8456 71.801 95.2857 71.6846 95.5768 71.4518C95.8641 71.219 96.0642 70.8225 96.1697 70.2659H96.2497C96.3661 70.797 96.6026 71.1826 96.9627 71.43C97.3229 71.6773 97.8322 71.801 98.4906 71.801L98.5051 71.7865V71.801C99.029 71.801 99.4219 71.761 99.6874 71.681C99.9493 71.6009 100.171 71.4736 100.349 71.3026L100.415 71.3427C100.273 71.55 100.149 71.7828 100.048 72.0411C99.9457 72.2994 99.8948 72.5759 99.8948 72.8632C99.8948 73.0233 99.913 73.1797 99.9493 73.3289C99.9857 73.478 100.051 73.6454 100.142 73.8345C100.237 74.0237 100.36 74.2456 100.517 74.5002C100.673 74.7549 100.87 75.0677 101.11 75.4351H102.579L103.98 71.8047ZM87.6464 68.5489C87.6464 68.8908 87.5373 69.1273 87.319 69.2619C87.1008 69.3965 86.7261 69.4656 86.1913 69.4656C85.7803 69.4656 85.4965 69.4074 85.3292 69.291C85.1655 69.1746 85.0818 68.9854 85.0818 68.7271C85.0818 68.4507 85.1873 68.2142 85.4019 68.0214C85.6166 67.8286 85.9622 67.6067 86.4423 67.3557L87.6428 66.7373V68.5489H87.6464Z" fill="white"/>
<path d="M111.172 61.8445H109.931V71.8047H111.172V61.8445Z" fill="white"/>
<path d="M4.22888 81.3143L3.52679 81.1834C3.15938 81.1179 2.89382 81.0197 2.72649 80.8814C2.56279 80.7432 2.47912 80.5322 2.47912 80.2448C2.47912 79.9647 2.58098 79.7464 2.78833 79.59C2.99204 79.4372 3.30125 79.3572 3.71232 79.3572C4.11611 79.3572 4.45078 79.43 4.71634 79.5755C4.9819 79.7173 5.21108 79.9065 5.3966 80.1357L6.36788 79.2081C6.06595 78.837 5.70217 78.5569 5.27656 78.3677C4.85094 78.1786 4.3562 78.084 3.78507 78.084C3.35946 78.084 2.98113 78.1349 2.64645 78.2404C2.31178 78.3459 2.0244 78.495 1.78795 78.6951C1.55149 78.8916 1.3696 79.128 1.24228 79.4045C1.11496 79.681 1.05312 79.9902 1.05312 80.3321C1.05312 81.569 1.80613 82.3074 3.31217 82.5475L4.02517 82.6566C4.42168 82.7294 4.69088 82.8458 4.83639 83.0022C4.9819 83.1623 5.05101 83.366 5.05101 83.617C5.05101 83.9408 4.93824 84.1991 4.71634 84.3919C4.49444 84.5847 4.15976 84.6792 3.72323 84.6792C3.33399 84.6792 2.98113 84.5992 2.65737 84.4428C2.33725 84.2827 2.04623 84.0535 1.78795 83.7516L0.827576 84.6902C1.15134 85.0685 1.54058 85.374 1.98802 85.6069C2.4391 85.8397 2.9884 85.9561 3.63593 85.9561C4.09065 85.9561 4.4908 85.8979 4.84002 85.7815C5.18925 85.6651 5.48391 85.4977 5.72764 85.2867C5.96773 85.0721 6.15326 84.8175 6.28058 84.5228C6.4079 84.2282 6.46974 83.8971 6.46974 83.537C6.46974 82.904 6.28785 82.4129 5.92408 82.0601C5.55666 81.6963 4.99281 81.4526 4.22888 81.3143Z" fill="white"/>
<path d="M12.1591 82.0228C12.1591 81.3716 11.9627 80.8696 11.5662 80.5204C11.1696 80.1712 10.5912 79.9966 9.82731 79.9966C9.25982 79.9966 8.80146 80.0984 8.45588 80.2985C8.11029 80.4986 7.83382 80.7641 7.62283 81.0952L8.44496 81.8409C8.5832 81.6445 8.75053 81.4771 8.94697 81.3353C9.14341 81.1934 9.40533 81.1243 9.72909 81.1243C10.0965 81.1243 10.3621 81.2116 10.5294 81.3862C10.6931 81.5608 10.7768 81.8082 10.7768 82.1283V82.543H9.8164C9.04519 82.543 8.45224 82.6849 8.0339 82.9723C7.61556 83.2596 7.4082 83.6962 7.4082 84.2819C7.4082 84.7875 7.56463 85.1949 7.87384 85.5005C8.18305 85.8061 8.62685 85.9552 9.20162 85.9552C9.62724 85.9552 9.98373 85.8643 10.2711 85.6788C10.5585 85.4932 10.7513 85.2168 10.8422 84.8457H10.9077C10.9514 85.144 11.0605 85.3805 11.2388 85.5587C11.417 85.737 11.6535 85.8243 11.959 85.8243H12.7266V84.7002H12.1664V82.0228H12.1591ZM10.7768 84.1254C10.7768 84.391 10.6676 84.5947 10.453 84.7329C10.2384 84.8712 9.97282 84.9403 9.66361 84.9403C9.39078 84.9403 9.17979 84.8857 9.03064 84.773C8.88149 84.6602 8.80874 84.4892 8.80874 84.26V84.0745C8.80874 83.6125 9.16888 83.3833 9.88915 83.3833H10.7768V84.1254Z" fill="white"/>
<path d="M17.2194 83.8894C17.2194 84.0422 17.1866 84.1731 17.1212 84.2859C17.0557 84.3987 16.972 84.4932 16.8738 84.5696C16.7719 84.646 16.6555 84.7006 16.5209 84.737C16.3863 84.7734 16.2517 84.7915 16.1171 84.7915C15.7861 84.7915 15.546 84.686 15.3932 84.4823C15.2404 84.275 15.1677 83.9767 15.1677 83.5838V80.1279H13.7853V83.7257C13.7853 84.4387 13.9418 84.988 14.251 85.3699C14.5602 85.7555 15.0076 85.9483 15.5897 85.9483C15.8188 85.9483 16.0226 85.9192 16.2008 85.861C16.3754 85.8028 16.5282 85.7228 16.6555 85.6209C16.7829 85.5191 16.8847 85.4063 16.9684 85.279C17.052 85.1517 17.1175 85.0171 17.1685 84.8716H17.223V85.821H18.6054V80.1316H17.223V83.8894H17.2194Z" fill="white"/>
<path d="M23.7023 81.0665H23.6478C23.5459 80.7391 23.3567 80.4808 23.0766 80.288C22.7965 80.0952 22.4691 80.0006 22.0944 80.0006C21.3814 80.0006 20.8358 80.2552 20.4574 80.7682C20.0791 81.2811 19.89 82.0123 19.89 82.9654C19.89 83.9257 20.0791 84.6642 20.4574 85.1771C20.8358 85.6937 21.3814 85.952 22.0944 85.952C22.4691 85.952 22.7965 85.8538 23.0766 85.6573C23.3567 85.4609 23.5495 85.199 23.6478 84.8716H23.7023V85.821H25.0847V77.7561H23.7023V81.0665ZM23.7023 83.8675C23.7023 84.1658 23.5896 84.395 23.3676 84.5551C23.1457 84.7151 22.8656 84.7952 22.5346 84.7952C22.1745 84.7952 21.8834 84.6751 21.6652 84.435C21.4469 84.1949 21.3341 83.8712 21.3341 83.4637V82.4815C21.3341 82.0741 21.4433 81.7504 21.6652 81.5066C21.8834 81.2629 22.1745 81.1429 22.5346 81.1429C22.8656 81.1429 23.1421 81.2265 23.3676 81.3939C23.5896 81.5612 23.7023 81.7831 23.7023 82.0596V83.8675Z" fill="white"/>
<path d="M28.0674 80.1279H26.6851V85.8174H28.0674V80.1279Z" fill="white"/>
<path d="M27.376 77.6865C27.0887 77.6865 26.8813 77.752 26.754 77.883C26.6267 78.0139 26.5648 78.1813 26.5648 78.385V78.6032C26.5648 78.8069 26.6267 78.9743 26.754 79.1052C26.8813 79.2362 27.0887 79.3017 27.376 79.3017C27.6561 79.3017 27.8635 79.2362 27.9908 79.1052C28.1218 78.9743 28.1873 78.8069 28.1873 78.6032V78.385C28.1873 78.1813 28.1218 78.0139 27.9908 77.883C27.8599 77.752 27.6561 77.6865 27.376 77.6865Z" fill="white"/>
<path d="M39.2497 81.8635L38.7731 84.1953H38.744L38.2129 81.8635L37.3471 78.2112H35.772L34.9062 81.8635L34.3678 84.1953H34.3351L33.8694 81.8635L33.1237 78.2112H31.6977L33.4475 85.8177H35.0699L36.0303 81.798L36.5177 79.79H36.5395L37.0015 81.798L37.9655 85.8177H39.5734L41.3778 78.2112H40.0172L39.2497 81.8635Z" fill="white"/>
<path d="M46.5651 82.0228C46.5651 81.3716 46.365 80.8696 45.9722 80.5204C45.5757 80.1712 44.9973 79.9966 44.2333 79.9966C43.6658 79.9966 43.2075 80.0984 42.8619 80.2985C42.5163 80.4986 42.2398 80.7641 42.0288 81.0952L42.851 81.8409C42.9892 81.6445 43.1565 81.4771 43.353 81.3353C43.5494 81.1934 43.8113 81.1243 44.1351 81.1243C44.5025 81.1243 44.7681 81.2116 44.9354 81.3862C45.1027 81.5608 45.1828 81.8082 45.1828 82.1283V82.543H44.2224C43.4512 82.543 42.8582 82.6849 42.4399 82.9723C42.0216 83.2596 41.8142 83.6962 41.8142 84.2819C41.8142 84.7875 41.9706 85.1949 42.2798 85.5005C42.5891 85.8061 43.0329 85.9552 43.6076 85.9552C44.0332 85.9552 44.3897 85.8643 44.6771 85.6788C44.9645 85.4932 45.1573 85.2168 45.2483 84.8457H45.3137C45.3574 85.144 45.4665 85.3805 45.6448 85.5587C45.823 85.737 46.0595 85.8243 46.365 85.8243H47.1326V84.7002H46.5724V82.0228H46.5651ZM45.1828 84.1254C45.1828 84.391 45.0736 84.5947 44.859 84.7329C44.6444 84.8712 44.3788 84.9403 44.0696 84.9403C43.7968 84.9403 43.5858 84.8857 43.4367 84.773C43.2875 84.6602 43.2147 84.4892 43.2147 84.26V84.0745C43.2147 83.6125 43.5749 83.3833 44.2952 83.3833H45.1828V84.1254Z" fill="white"/>
<path d="M49.8937 78.5708H48.6496V79.5421C48.6496 79.7385 48.6132 79.884 48.5369 79.9823C48.4605 80.0805 48.3186 80.1278 48.1112 80.1278H47.6783V81.2518H48.5114V84.373C48.5114 84.8387 48.6351 85.1952 48.8824 85.4425C49.1298 85.6935 49.4936 85.8172 49.9701 85.8172H50.9632V84.6932H49.8937V81.2482H51.0505V80.1241H49.8937V78.5708Z" fill="white"/>
<path d="M56.3874 80.8478C56.18 80.5859 55.9108 80.3785 55.5871 80.2258C55.2633 80.073 54.8813 79.9966 54.4412 79.9966C54.0301 79.9966 53.6627 80.0693 53.3389 80.2076C53.0152 80.3494 52.7423 80.5495 52.5168 80.8078C52.2949 81.0661 52.1239 81.3753 52.0039 81.7391C51.8838 82.1028 51.8256 82.5103 51.8256 82.9614C51.8256 83.4197 51.8875 83.8308 52.0111 84.1982C52.1348 84.5656 52.3094 84.8785 52.535 85.1367C52.7605 85.395 53.0406 85.5951 53.368 85.737C53.6954 85.8788 54.0701 85.9479 54.4848 85.9479C55.0123 85.9479 55.4743 85.8534 55.8744 85.6678C56.2746 85.4823 56.5874 85.224 56.8203 84.8966L56.0745 84.0563C55.8999 84.2819 55.7071 84.4637 55.4852 84.6093C55.2669 84.7548 54.9832 84.8239 54.6376 84.8239C54.1829 84.8239 53.8409 84.7002 53.6118 84.4492C53.3826 84.2018 53.2662 83.8708 53.2662 83.4597V83.3179H57.0167V82.8595C57.0167 82.4666 56.9658 82.0992 56.8603 81.7536C56.7548 81.4117 56.5984 81.1097 56.3874 80.8478ZM55.5762 82.463H53.2625V82.3757C53.2625 81.9828 53.3717 81.6627 53.5863 81.4153C53.8009 81.1679 54.0956 81.0443 54.463 81.0443C54.8231 81.0443 55.0996 81.1643 55.2888 81.408C55.4779 81.6518 55.5762 81.9682 55.5762 82.3611V82.463Z" fill="white"/>
<path d="M60.5742 80.2266C60.4032 80.2921 60.2577 80.3794 60.1377 80.4885C60.014 80.5976 59.9158 80.7213 59.8394 80.8632C59.763 81.0051 59.7084 81.1506 59.672 81.3034H59.6175V80.1247H58.2351V85.8142H59.6175V82.3256C59.6175 82.0127 59.7375 81.7872 59.974 81.6489C60.2104 81.5107 60.5633 81.4416 61.0325 81.4416H61.4654V80.1211H61.1635C60.9416 80.1284 60.7452 80.1611 60.5742 80.2266Z" fill="white"/>
<path d="M66.9875 78.2112L64.4592 85.8177H65.9071L66.5 83.8788H69.181L69.7849 85.8177H71.2655L68.7591 78.2112H66.9875ZM66.8456 82.6492L67.806 79.5208H67.8605L68.8318 82.6492H66.8456Z" fill="white"/>
<path d="M75.6638 83.8894C75.6638 84.0422 75.6311 84.1731 75.5656 84.2859C75.5001 84.3987 75.4165 84.4932 75.3183 84.5696C75.2164 84.646 75.1 84.7006 74.9654 84.737C74.8308 84.7734 74.6962 84.7915 74.5616 84.7915C74.2306 84.7915 73.9905 84.686 73.8377 84.4823C73.6849 84.275 73.6121 83.9767 73.6121 83.5838V80.1279H72.2298V83.7257C72.2298 84.4387 72.3862 84.988 72.6954 85.3699C73.0046 85.7555 73.4521 85.9483 74.0341 85.9483C74.2633 85.9483 74.467 85.9192 74.6453 85.861C74.8199 85.8028 74.9727 85.7228 75.1 85.6209C75.2273 85.5191 75.3292 85.4063 75.4128 85.279C75.4965 85.1517 75.562 85.0171 75.6129 84.8716H75.6675V85.821H77.0498V80.1316H75.6675V83.8894H75.6638Z" fill="white"/>
<path d="M80.3308 78.5708H79.0867V79.5421C79.0867 79.7385 79.0503 79.884 78.9739 79.9823C78.8975 80.0805 78.7557 80.1278 78.5483 80.1278H78.1154V81.2518H78.9485V84.373C78.9485 84.8387 79.0721 85.1952 79.3195 85.4425C79.5669 85.6935 79.9307 85.8172 80.4036 85.8172H81.3967V84.6932H80.3272V81.2482H81.484V80.1241H80.3272V78.5708H80.3308Z" fill="white"/>
<path d="M85.7039 79.9969C85.2637 79.9969 84.9217 80.1024 84.6707 80.3098C84.4234 80.5171 84.2415 80.7718 84.1251 81.0774H84.0705V77.7524H82.6882V85.8174H84.0705V82.0559C84.0705 81.9031 84.1033 81.7722 84.1687 81.6594C84.2342 81.5466 84.3179 81.452 84.4234 81.3756C84.5289 81.2993 84.6453 81.2411 84.7799 81.201C84.9145 81.161 85.0527 81.1392 85.1946 81.1392C85.5256 81.1392 85.7621 81.241 85.9076 81.4448C86.0531 81.6485 86.1222 81.9541 86.1222 82.3615V85.8174H87.5046V82.2196C87.5046 81.5066 87.3481 80.9573 87.0389 80.5753C86.7334 80.1897 86.2859 79.9969 85.7039 79.9969Z" fill="white"/>
<path d="M93.1975 80.801C92.972 80.5428 92.6955 80.3463 92.3718 80.2081C92.048 80.0699 91.6842 80.0007 91.2804 80.0007C90.8767 80.0007 90.5165 80.0699 90.1927 80.2081C89.8726 80.3463 89.5998 80.5428 89.3706 80.801C89.1451 81.0593 88.9705 81.3685 88.8468 81.7323C88.7231 82.0961 88.6613 82.5072 88.6613 82.9655C88.6613 83.4239 88.7231 83.8349 88.8468 84.2023C88.9705 84.5698 89.1451 84.8826 89.3706 85.1445C89.5962 85.4064 89.8726 85.6065 90.1927 85.7448C90.5129 85.883 90.8767 85.9521 91.2804 85.9521C91.6842 85.9521 92.048 85.883 92.3718 85.7448C92.6955 85.6065 92.972 85.4064 93.1975 85.1445C93.4231 84.8826 93.5977 84.5698 93.7214 84.2023C93.8451 83.8349 93.9033 83.4239 93.9033 82.9655C93.9033 82.5072 93.8414 82.0961 93.7214 81.7323C93.5977 81.3685 93.4231 81.0593 93.1975 80.801ZM92.4554 83.4966C92.4554 83.9332 92.3499 84.2642 92.1426 84.4897C91.9352 84.7153 91.6442 84.828 91.2768 84.828C90.9167 84.828 90.6329 84.7153 90.4219 84.4897C90.2146 84.2642 90.1091 83.9332 90.1091 83.4966V82.438C90.1091 82.0088 90.2146 81.6814 90.4219 81.4558C90.6293 81.2303 90.9167 81.1175 91.2768 81.1175C91.6442 81.1175 91.9316 81.2303 92.1426 81.4558C92.3499 81.6814 92.4554 82.0088 92.4554 82.438V83.4966Z" fill="white"/>
<path d="M97.4645 80.2266C97.2935 80.2921 97.148 80.3794 97.028 80.4885C96.9043 80.5976 96.8061 80.7213 96.7297 80.8632C96.6533 81.0051 96.5987 81.1506 96.5623 81.3034H96.5078V80.1247H95.1254V85.8142H96.5078V82.3256C96.5078 82.0127 96.6278 81.7872 96.8643 81.6489C97.1007 81.5107 97.4536 81.4416 97.9229 81.4416H98.3557V80.1211H98.0538C97.8283 80.1284 97.6318 80.1611 97.4645 80.2266Z" fill="white"/>
<path d="M100.062 77.6865C99.7743 77.6865 99.5669 77.752 99.4396 77.883C99.3123 78.0139 99.2504 78.1813 99.2504 78.385V78.6032C99.2504 78.8069 99.3123 78.9743 99.4396 79.1052C99.5669 79.2362 99.7743 79.3017 100.062 79.3017C100.342 79.3017 100.549 79.2362 100.676 79.1052C100.807 78.9743 100.873 78.8069 100.873 78.6032V78.385C100.873 78.1813 100.807 78.0139 100.676 77.883C100.549 77.752 100.342 77.6865 100.062 77.6865Z" fill="white"/>
<path d="M100.753 80.1279H99.3707V85.8174H100.753V80.1279Z" fill="white"/>
<path d="M104.038 78.5708H102.794V79.5421C102.794 79.7385 102.757 79.884 102.681 79.9823C102.605 80.0805 102.463 80.1278 102.255 80.1278H101.823V81.2518H102.656V84.373C102.656 84.8387 102.779 85.1952 103.027 85.4425C103.274 85.6935 103.638 85.8172 104.114 85.8172H105.107V84.6932H104.038V81.2482H105.195V80.1241H104.038V78.5708Z" fill="white"/>
<path d="M108.869 83.1325L108.48 84.5694H108.414L108.047 83.1325L107.065 80.1313H105.693L107.712 86.0827L107.454 86.8758H106.439V87.9998H107.272C107.501 87.9998 107.705 87.978 107.876 87.9343C108.05 87.8907 108.196 87.8216 108.32 87.727C108.443 87.6324 108.549 87.5124 108.64 87.3632C108.731 87.2141 108.811 87.0394 108.883 86.8357L111.153 80.1313H109.858L108.869 83.1325Z" fill="white"/>
<defs>
<linearGradient id="paint0_linear_118_95382" x1="45.3708" y1="40.4656" x2="84.3264" y2="40.4656" gradientUnits="userSpaceOnUse">
<stop stop-color="#0074FF"/>
<stop offset="1" stop-color="#131D77"/>
</linearGradient>
<linearGradient id="paint1_linear_118_95382" x1="51.4217" y1="43.3003" x2="74.4364" y2="43.3003" gradientUnits="userSpaceOnUse">
<stop stop-color="#1913A3"/>
<stop offset="1" stop-color="#73C1F7"/>
</linearGradient>
<linearGradient id="paint2_linear_118_95382" x1="45.3708" y1="39.683" x2="52.4118" y2="39.683" gradientUnits="userSpaceOnUse">
<stop stop-color="#1913A3"/>
<stop offset="1" stop-color="#73C1F7"/>
</linearGradient>
<linearGradient id="paint3_linear_118_95382" x1="49.3756" y1="42.4338" x2="61.2805" y2="42.4338" gradientUnits="userSpaceOnUse">
<stop stop-color="#1913A3"/>
<stop offset="1" stop-color="#73C1F7"/>
</linearGradient>
<linearGradient id="paint4_linear_118_95382" x1="31.5082" y1="19.5219" x2="79.1529" y2="19.5219" gradientUnits="userSpaceOnUse">
<stop stop-color="#C3E5FD"/>
<stop offset="0.4907" stop-color="#3FBFFF"/>
<stop offset="1" stop-color="#3FBFFF"/>
</linearGradient>
<linearGradient id="paint5_linear_118_95382" x1="55.9153" y1="30.502" x2="79.1526" y2="30.502" gradientUnits="userSpaceOnUse">
<stop offset="0.00128141" stop-color="#9A99CB"/>
<stop offset="1" stop-color="#3FBFFF"/>
</linearGradient>
<linearGradient id="paint6_linear_118_95382" x1="58.5493" y1="26.0277" x2="72.9145" y2="26.0277" gradientUnits="userSpaceOnUse">
<stop offset="0.00126499" stop-color="#9A99CB"/>
<stop offset="1" stop-color="#3FBFFF"/>
</linearGradient>
<linearGradient id="paint7_linear_118_95382" x1="44.8007" y1="18.833" x2="65.002" y2="18.833" gradientUnits="userSpaceOnUse">
<stop offset="0.00128141" stop-color="#9A99CB"/>
<stop offset="1" stop-color="#5FBEEB"/>
</linearGradient>
<linearGradient id="paint8_linear_118_95382" x1="27.672" y1="26.3749" x2="55.9145" y2="26.3749" gradientUnits="userSpaceOnUse">
<stop offset="0.0148" stop-color="#07DDB9"/>
<stop offset="0.8218" stop-color="#04B7EF"/>
</linearGradient>
<linearGradient id="paint9_linear_118_95382" x1="39.1479" y1="32.656" x2="55.9145" y2="32.656" gradientUnits="userSpaceOnUse">
<stop offset="0.0139" stop-color="#07DDB9"/>
<stop offset="1" stop-color="#04B7EF"/>
</linearGradient>
<linearGradient id="paint10_linear_118_95382" x1="28.1023" y1="12.4963" x2="55.9093" y2="12.4963" gradientUnits="userSpaceOnUse">
<stop offset="0.0148" stop-color="#07DDB9"/>
<stop offset="0.8218" stop-color="#04B7EF"/>
</linearGradient>
<linearGradient id="paint11_linear_118_95382" x1="31.0947" y1="12.4968" x2="55.9093" y2="12.4968" gradientUnits="userSpaceOnUse">
<stop offset="2.0668e-05" stop-color="white"/>
<stop offset="1" stop-color="#07DDB9" stop-opacity="0"/>
</linearGradient>
<linearGradient id="paint12_linear_118_95382" x1="34.2067" y1="27.383" x2="55.9143" y2="27.383" gradientUnits="userSpaceOnUse">
<stop offset="0.5713" stop-color="#07DDB9"/>
<stop offset="1" stop-color="#04B7EF"/>
</linearGradient>
<linearGradient id="paint13_linear_118_95382" x1="29.2975" y1="22.6545" x2="55.9144" y2="22.6545" gradientUnits="userSpaceOnUse">
<stop offset="0.0149" stop-color="#07DDB9"/>
<stop offset="0.8218" stop-color="#04B7EF"/>
</linearGradient>
<linearGradient id="paint14_linear_118_95382" x1="27.672" y1="16.1621" x2="55.9145" y2="16.1621" gradientUnits="userSpaceOnUse">
<stop offset="0.0149" stop-color="#07DDB9"/>
<stop offset="0.8218" stop-color="#04B7EF"/>
</linearGradient>
<linearGradient id="paint15_linear_118_95382" x1="50.0282" y1="30.1692" x2="45.1924" y2="46.6914" gradientUnits="userSpaceOnUse">
<stop stop-color="#0074FF" stop-opacity="0"/>
<stop offset="1" stop-color="#131D77" stop-opacity="0.4"/>
</linearGradient>
<linearGradient id="paint16_linear_118_95382" x1="57.497" y1="33.8948" x2="80.7346" y2="33.8948" gradientUnits="userSpaceOnUse">
<stop offset="0.00223043" stop-color="white" stop-opacity="0"/>
<stop offset="1" stop-color="#3FBFFF" stop-opacity="0.4"/>
</linearGradient>
</defs>
</svg>
